<svg xmlns="http://www.w3.org/2000/svg" width="112" height="36" fill="none"><path d="M7.181 35.748c-.289 0-.571-.004-.858-.01a12.197 12.197 0 0 1-1.772-.153 5.637 5.637 0 0 1-1.572-.512 5.125 5.125 0 0 1-1.324-.95 4.977 4.977 0 0 1-.969-1.306 5.294 5.294 0 0 1-.514-1.548 11.44 11.44 0 0 1-.158-1.752C.008 29.32 0 28.663 0 28.663V7.074s.008-.646.014-.836c.007-.586.06-1.171.157-1.75.09-.54.264-1.065.515-1.553A5.246 5.246 0 0 1 2.98.672 5.58 5.58 0 0 1 4.546.165a12.224 12.224 0 0 1 1.78-.154l.855-.01h97.466l.866.01c.59.008 1.18.058 1.762.153a5.686 5.686 0 0 1 1.585.512 5.264 5.264 0 0 1 2.291 2.262c.247.485.418 1.005.508 1.54.098.584.153 1.174.164 1.765.003.264.003.549.003.831.007.351.007.685.007 1.021v19.56c0 .34 0 .67-.007 1.005 0 .303 0 .582-.004.868a11.71 11.71 0 0 1-.162 1.733 5.286 5.286 0 0 1-.512 1.56c-.25.48-.575.916-.963 1.295-.388.387-.836.71-1.327.956a5.627 5.627 0 0 1-1.583.514c-.586.094-1.178.146-1.772.152-.278.007-.569.01-.852.01l-1.027.003-96.444-.003h.001Z" fill="#fff"></path><mask id="apple-store_svg__a" fill="#fff"><path d="M22.724 17.77a4.849 4.849 0 0 1 2.311-4.061 4.965 4.965 0 0 0-3.915-2.11c-1.647-.172-3.244.983-4.084.983-.855 0-2.147-.966-3.54-.938a5.206 5.206 0 0 0-4.388 2.668c-1.896 3.276-.48 8.09 1.337 10.738.908 1.296 1.971 2.745 3.362 2.694 1.36-.058 1.869-.866 3.511-.866 1.627 0 2.104.866 3.522.833 1.462-.025 2.38-1.303 3.257-2.611a10.714 10.714 0 0 0 1.49-3.026 4.69 4.69 0 0 1-2.081-1.722 4.67 4.67 0 0 1-.782-2.581Zm-2.68-7.912a4.758 4.758 0 0 0 1.094-3.415 4.868 4.868 0 0 0-3.147 1.624 4.531 4.531 0 0 0-1.122 3.288 4.028 4.028 0 0 0 3.175-1.497ZM39.048 24.59h-4.465l-1.072 3.157H31.62l4.228-11.68h1.966l4.229 11.68h-1.922l-1.072-3.157h-.001Zm-4.002-1.457h3.54L36.84 18.01h-.05l-1.744 5.124Zm16.131.357c0 2.646-1.42 4.346-3.564 4.346a2.901 2.901 0 0 1-2.687-1.49h-.04v4.22h-1.754V19.231h1.698v1.416h.032a3.027 3.027 0 0 1 2.719-1.505c2.167 0 3.596 1.709 3.596 4.348Zm-1.802 0c0-1.724-.893-2.858-2.257-2.858-1.339 0-2.24 1.157-2.24 2.858 0 1.715.901 2.865 2.24 2.865 1.363 0 2.257-1.125 2.257-2.865Zm11.202 0c0 2.646-1.42 4.346-3.564 4.346a2.902 2.902 0 0 1-2.687-1.49h-.041v4.22h-1.753V19.231h1.697v1.416h.032a3.026 3.026 0 0 1 2.72-1.505c2.168 0 3.596 1.709 3.596 4.348Zm-1.801 0c0-1.724-.894-2.858-2.258-2.858-1.34 0-2.24 1.157-2.24 2.858 0 1.715.9 2.865 2.24 2.865 1.364 0 2.258-1.125 2.258-2.865Zm8.013 1.003c.13 1.159 1.259 1.918 2.8 1.918 1.478 0 2.542-.759 2.542-1.804 0-.907-.642-1.45-2.16-1.822l-1.517-.365c-2.151-.517-3.15-1.52-3.15-3.149 0-2.015 1.761-3.4 4.26-3.4 2.477 0 4.174 1.384 4.232 3.4h-1.77c-.106-1.166-1.073-1.87-2.485-1.87s-2.378.712-2.378 1.75c0 .825.617 1.311 2.127 1.683l1.29.316c2.404.567 3.402 1.529 3.402 3.238 0 2.186-1.746 3.555-4.522 3.555-2.597 0-4.352-1.337-4.465-3.45h1.794Zm10.978-7.277v2.015h1.624v1.384h-1.624v4.696c0 .729.325 1.07 1.039 1.07a5.66 5.66 0 0 0 .576-.042v1.377c-.32.06-.647.087-.973.08-1.73 0-2.404-.648-2.404-2.3v-4.88h-1.24v-1.385h1.241v-2.016h1.762-.001Zm2.564 6.274c0-2.68 1.582-4.363 4.05-4.363 2.476 0 4.052 1.683 4.052 4.363 0 2.687-1.568 4.364-4.052 4.364-2.484 0-4.05-1.677-4.05-4.364Zm6.316 0c0-1.839-.845-2.924-2.266-2.924-1.42 0-2.265 1.094-2.265 2.924 0 1.845.845 2.922 2.265 2.922 1.42 0 2.266-1.077 2.266-2.922Zm3.231-4.259h1.672v1.45h.04a2.034 2.034 0 0 1 2.055-1.539c.202 0 .403.021.6.065v1.635a2.458 2.458 0 0 0-.787-.106 1.771 1.771 0 0 0-1.75 1.21 1.76 1.76 0 0 0-.077.75v5.052h-1.754l.001-8.517Zm12.45 6.015c-.235 1.546-1.746 2.608-3.677 2.608-2.485 0-4.027-1.66-4.027-4.323 0-2.672 1.55-4.404 3.953-4.404 2.363 0 3.849 1.618 3.849 4.2v.6h-6.032v.105a2.217 2.217 0 0 0 2.297 2.412 1.931 1.931 0 0 0 1.973-1.198h1.664Zm-5.926-2.542h4.27a2.047 2.047 0 0 0-2.095-2.161 2.169 2.169 0 0 0-2.01 1.331c-.11.263-.165.546-.165.83ZM33.801 9.647h.752a.946.946 0 0 0 1.062-.895c0-.517-.391-.851-1.053-.851a1.006 1.006 0 0 0-1.137.88H32.6a1.753 1.753 0 0 1 .637-1.253 1.767 1.767 0 0 1 1.353-.39c1.107 0 1.888.62 1.888 1.51a1.302 1.302 0 0 1-1.023 1.283v.066a1.314 1.314 0 0 1 1.252 1.358 1.872 1.872 0 0 1-1.36 1.613c-.242.067-.494.086-.742.055a1.877 1.877 0 0 1-1.893-.95 1.86 1.86 0 0 1-.221-.71h.839c.05.536.545.883 1.275.883.729 0 1.206-.39 1.206-.938 0-.556-.45-.898-1.233-.898h-.776v-.763Zm3.858 2.042c0-.762.57-1.201 1.58-1.264l1.15-.065v-.367c0-.447-.295-.7-.87-.7-.467 0-.79.172-.884.472h-.811c.085-.729.773-1.195 1.736-1.195 1.064 0 1.665.528 1.665 1.423v2.895h-.808v-.596h-.065a1.429 1.429 0 0 1-1.277.665 1.286 1.286 0 0 1-1.304-.748 1.28 1.28 0 0 1-.112-.52Zm2.73-.361v-.354l-1.037.066c-.585.039-.85.237-.85.61 0 .381.332.604.788.604a1.004 1.004 0 0 0 1.1-.926Zm3.062-1.972v3.532h-.84V8.65h2.798v.705H43.45Zm7.038 1.412c0 1.346-.682 2.19-1.755 2.19a1.387 1.387 0 0 1-1.307-.712h-.066v2.049h-.838V8.652h.806v.7h.063a1.473 1.473 0 0 1 1.334-.77c1.08 0 1.763.84 1.763 2.186Zm-.862 0c0-.895-.424-1.435-1.135-1.435-.706 0-1.146.552-1.146 1.438 0 .883.44 1.436 1.143 1.436.714 0 1.138-.54 1.138-1.44Zm1.979 3.636v-.719c.09.012.182.016.273.016a.728.728 0 0 0 .769-.591l.062-.207-1.537-4.252h.913l1.064 3.364h.067l1.062-3.364h.888l-1.583 4.41c-.363 1.032-.765 1.362-1.631 1.362-.07 0-.27-.008-.347-.02v.001Zm4.215-2.719h.834c.081.374.432.568.924.568.558 0 .901-.245.901-.626 0-.408-.308-.604-.901-.604h-.636v-.649h.625c.506 0 .764-.194.764-.547 0-.312-.249-.549-.764-.549-.47 0-.812.198-.866.532h-.808a1.492 1.492 0 0 1 1.673-1.24c1.01 0 1.588.455 1.588 1.17a.868.868 0 0 1-.67.868v.066a.953.953 0 0 1 .83.953c0 .805-.686 1.338-1.736 1.338-.928 0-1.682-.424-1.758-1.28Zm4.702 1.203V8.65h.83v2.914h.067l1.958-2.914h.83v4.237h-.831v-2.93h-.063l-1.96 2.93h-.832.001Zm8.263-3.532h-1.337v3.532h-.84V9.356h-1.338V8.65h3.515v.704Zm4.516 2.388a1.723 1.723 0 0 1-1.841 1.225 1.932 1.932 0 0 1-1.896-1.361 1.918 1.918 0 0 1-.067-.825 1.95 1.95 0 0 1 1.145-2.044c.256-.114.534-.172.815-.17 1.18 0 1.895.806 1.895 2.136v.292h-3v.047a1.115 1.115 0 0 0 1.132 1.213 1.02 1.02 0 0 0 1.01-.513h.807Zm-2.949-1.366h2.145a1.02 1.02 0 0 0-1.045-1.097 1.088 1.088 0 0 0-1.1 1.097Zm6.503-1.727h1.916c.83 0 1.319.42 1.319 1.078a.909.909 0 0 1-.719.894v.066a.97.97 0 0 1 .909.977c0 .74-.558 1.222-1.49 1.222h-1.934V8.65h-.001Zm.83.643v1.096h.832c.506 0 .75-.195.75-.553 0-.33-.212-.543-.657-.543h-.924Zm0 1.71v1.241h.995c.496 0 .76-.218.76-.618 0-.424-.3-.623-.865-.623h-.89Z"></path></mask><path d="M22.724 17.77a4.849 4.849 0 0 1 2.311-4.061 4.965 4.965 0 0 0-3.915-2.11c-1.647-.172-3.244.983-4.084.983-.855 0-2.147-.966-3.54-.938a5.206 5.206 0 0 0-4.388 2.668c-1.896 3.276-.48 8.09 1.337 10.738.908 1.296 1.971 2.745 3.362 2.694 1.36-.058 1.869-.866 3.511-.866 1.627 0 2.104.866 3.522.833 1.462-.025 2.38-1.303 3.257-2.611a10.714 10.714 0 0 0 1.49-3.026 4.69 4.69 0 0 1-2.081-1.722 4.67 4.67 0 0 1-.782-2.581Zm-2.68-7.912a4.758 4.758 0 0 0 1.094-3.415 4.868 4.868 0 0 0-3.147 1.624 4.531 4.531 0 0 0-1.122 3.288 4.028 4.028 0 0 0 3.175-1.497ZM39.048 24.59h-4.465l-1.072 3.157H31.62l4.228-11.68h1.966l4.229 11.68h-1.922l-1.072-3.157h-.001Zm-4.002-1.457h3.54L36.84 18.01h-.05l-1.744 5.124Zm16.131.357c0 2.646-1.42 4.346-3.564 4.346a2.901 2.901 0 0 1-2.687-1.49h-.04v4.22h-1.754V19.231h1.698v1.416h.032a3.027 3.027 0 0 1 2.719-1.505c2.167 0 3.596 1.709 3.596 4.348Zm-1.802 0c0-1.724-.893-2.858-2.257-2.858-1.339 0-2.24 1.157-2.24 2.858 0 1.715.901 2.865 2.24 2.865 1.363 0 2.257-1.125 2.257-2.865Zm11.202 0c0 2.646-1.42 4.346-3.564 4.346a2.902 2.902 0 0 1-2.687-1.49h-.041v4.22h-1.753V19.231h1.697v1.416h.032a3.026 3.026 0 0 1 2.72-1.505c2.168 0 3.596 1.709 3.596 4.348Zm-1.801 0c0-1.724-.894-2.858-2.258-2.858-1.34 0-2.24 1.157-2.24 2.858 0 1.715.9 2.865 2.24 2.865 1.364 0 2.258-1.125 2.258-2.865Zm8.013 1.003c.13 1.159 1.259 1.918 2.8 1.918 1.478 0 2.542-.759 2.542-1.804 0-.907-.642-1.45-2.16-1.822l-1.517-.365c-2.151-.517-3.15-1.52-3.15-3.149 0-2.015 1.761-3.4 4.26-3.4 2.477 0 4.174 1.384 4.232 3.4h-1.77c-.106-1.166-1.073-1.87-2.485-1.87s-2.378.712-2.378 1.75c0 .825.617 1.311 2.127 1.683l1.29.316c2.404.567 3.402 1.529 3.402 3.238 0 2.186-1.746 3.555-4.522 3.555-2.597 0-4.352-1.337-4.465-3.45h1.794Zm10.978-7.277v2.015h1.624v1.384h-1.624v4.696c0 .729.325 1.07 1.039 1.07a5.66 5.66 0 0 0 .576-.042v1.377c-.32.06-.647.087-.973.08-1.73 0-2.404-.648-2.404-2.3v-4.88h-1.24v-1.385h1.241v-2.016h1.762-.001Zm2.564 6.274c0-2.68 1.582-4.363 4.05-4.363 2.476 0 4.052 1.683 4.052 4.363 0 2.687-1.568 4.364-4.052 4.364-2.484 0-4.05-1.677-4.05-4.364Zm6.316 0c0-1.839-.845-2.924-2.266-2.924-1.42 0-2.265 1.094-2.265 2.924 0 1.845.845 2.922 2.265 2.922 1.42 0 2.266-1.077 2.266-2.922Zm3.231-4.259h1.672v1.45h.04a2.034 2.034 0 0 1 2.055-1.539c.202 0 .403.021.6.065v1.635a2.458 2.458 0 0 0-.787-.106 1.771 1.771 0 0 0-1.75 1.21 1.76 1.76 0 0 0-.077.75v5.052h-1.754l.001-8.517Zm12.45 6.015c-.235 1.546-1.746 2.608-3.677 2.608-2.485 0-4.027-1.66-4.027-4.323 0-2.672 1.55-4.404 3.953-4.404 2.363 0 3.849 1.618 3.849 4.2v.6h-6.032v.105a2.217 2.217 0 0 0 2.297 2.412 1.931 1.931 0 0 0 1.973-1.198h1.664Zm-5.926-2.542h4.27a2.047 2.047 0 0 0-2.095-2.161 2.169 2.169 0 0 0-2.01 1.331c-.11.263-.165.546-.165.83ZM33.801 9.647h.752a.946.946 0 0 0 1.062-.895c0-.517-.391-.851-1.053-.851a1.006 1.006 0 0 0-1.137.88H32.6a1.753 1.753 0 0 1 .637-1.253 1.767 1.767 0 0 1 1.353-.39c1.107 0 1.888.62 1.888 1.51a1.302 1.302 0 0 1-1.023 1.283v.066a1.314 1.314 0 0 1 1.252 1.358 1.872 1.872 0 0 1-1.36 1.613c-.242.067-.494.086-.742.055a1.877 1.877 0 0 1-1.893-.95 1.86 1.86 0 0 1-.221-.71h.839c.05.536.545.883 1.275.883.729 0 1.206-.39 1.206-.938 0-.556-.45-.898-1.233-.898h-.776v-.763Zm3.858 2.042c0-.762.57-1.201 1.58-1.264l1.15-.065v-.367c0-.447-.295-.7-.87-.7-.467 0-.79.172-.884.472h-.811c.085-.729.773-1.195 1.736-1.195 1.064 0 1.665.528 1.665 1.423v2.895h-.808v-.596h-.065a1.429 1.429 0 0 1-1.277.665 1.286 1.286 0 0 1-1.304-.748 1.28 1.28 0 0 1-.112-.52Zm2.73-.361v-.354l-1.037.066c-.585.039-.85.237-.85.61 0 .381.332.604.788.604a1.004 1.004 0 0 0 1.1-.926Zm3.062-1.972v3.532h-.84V8.65h2.798v.705H43.45Zm7.038 1.412c0 1.346-.682 2.19-1.755 2.19a1.387 1.387 0 0 1-1.307-.712h-.066v2.049h-.838V8.652h.806v.7h.063a1.473 1.473 0 0 1 1.334-.77c1.08 0 1.763.84 1.763 2.186Zm-.862 0c0-.895-.424-1.435-1.135-1.435-.706 0-1.146.552-1.146 1.438 0 .883.44 1.436 1.143 1.436.714 0 1.138-.54 1.138-1.44Zm1.979 3.636v-.719c.09.012.182.016.273.016a.728.728 0 0 0 .769-.591l.062-.207-1.537-4.252h.913l1.064 3.364h.067l1.062-3.364h.888l-1.583 4.41c-.363 1.032-.765 1.362-1.631 1.362-.07 0-.27-.008-.347-.02v.001Zm4.215-2.719h.834c.081.374.432.568.924.568.558 0 .901-.245.901-.626 0-.408-.308-.604-.901-.604h-.636v-.649h.625c.506 0 .764-.194.764-.547 0-.312-.249-.549-.764-.549-.47 0-.812.198-.866.532h-.808a1.492 1.492 0 0 1 1.673-1.24c1.01 0 1.588.455 1.588 1.17a.868.868 0 0 1-.67.868v.066a.953.953 0 0 1 .83.953c0 .805-.686 1.338-1.736 1.338-.928 0-1.682-.424-1.758-1.28Zm4.702 1.203V8.65h.83v2.914h.067l1.958-2.914h.83v4.237h-.831v-2.93h-.063l-1.96 2.93h-.832.001Zm8.263-3.532h-1.337v3.532h-.84V9.356h-1.338V8.65h3.515v.704Zm4.516 2.388a1.723 1.723 0 0 1-1.841 1.225 1.932 1.932 0 0 1-1.896-1.361 1.918 1.918 0 0 1-.067-.825 1.95 1.95 0 0 1 1.145-2.044c.256-.114.534-.172.815-.17 1.18 0 1.895.806 1.895 2.136v.292h-3v.047a1.115 1.115 0 0 0 1.132 1.213 1.02 1.02 0 0 0 1.01-.513h.807Zm-2.949-1.366h2.145a1.02 1.02 0 0 0-1.045-1.097 1.088 1.088 0 0 0-1.1 1.097Zm6.503-1.727h1.916c.83 0 1.319.42 1.319 1.078a.909.909 0 0 1-.719.894v.066a.97.97 0 0 1 .909.977c0 .74-.558 1.222-1.49 1.222h-1.934V8.65h-.001Zm.83.643v1.096h.832c.506 0 .75-.195.75-.553 0-.33-.212-.543-.657-.543h-.924Zm0 1.71v1.241h.995c.496 0 .76-.218.76-.618 0-.424-.3-.623-.865-.623h-.89Z" fill="#282828" stroke="#282828" stroke-width="1.633" mask="url(#apple-store_svg__a)"></path></svg>