<svg xmlns="http://www.w3.org/2000/svg" width="112" height="36" fill="none"><path d="M107.857 0H4.308C3.209 0 2.156.47 1.379 1.309.602 2.147.166 3.284.166 4.469V31.28c0 1.185.436 2.322 1.213 3.16.777.838 1.83 1.309 2.929 1.309h103.549c1.099 0 2.152-.47 2.929-1.309.777-.838 1.213-1.975 1.213-3.16V4.47c0-1.185-.436-2.322-1.213-3.16C110.009.47 108.956 0 107.857 0Z" fill="#fff"></path><mask id="google-play_svg__a" fill="#fff"><path d="M56.424 19.32a3.516 3.516 0 1 0 3.525 3.509 3.457 3.457 0 0 0-3.526-3.509h.001Zm0 5.639a2.13 2.13 0 1 1 1.982-2.13 2.033 2.033 0 0 1-1.982 2.13ZM48.73 19.32a3.517 3.517 0 1 0 3.526 3.509 3.458 3.458 0 0 0-3.526-3.509Zm0 5.639a2.13 2.13 0 1 1 1.982-2.13 2.031 2.031 0 0 1-1.982 2.13Zm-9.147-4.557v1.486h3.566c-.056.7-.347 1.36-.825 1.874a3.65 3.65 0 0 1-2.758 1.09 3.963 3.963 0 1 1 0-7.926 3.831 3.831 0 0 1 2.708 1.065l1.049-1.049a5.2 5.2 0 0 0-3.74-1.502 5.46 5.46 0 1 0 0 10.906 5.012 5.012 0 0 0 3.805-1.527 4.954 4.954 0 0 0 1.289-3.493c.002-.31-.023-.619-.075-.924h-5.02Zm37.408 1.155a3.304 3.304 0 0 0-3.005-2.237 3.303 3.303 0 0 0-3.302 3.509 3.493 3.493 0 0 0 6.406 1.957l-1.197-.826a1.989 1.989 0 0 1-1.726.966 1.774 1.774 0 0 1-1.7-1.065l4.698-1.94-.174-.363Zm-4.788 1.173a1.929 1.929 0 0 1 1.84-2.056 1.355 1.355 0 0 1 1.297.751l-3.137 1.305Zm-3.815 3.401h1.544v-10.32h-1.544v10.32Zm-2.526-6.027h-.058a2.428 2.428 0 0 0-1.85-.784 3.517 3.517 0 0 0 0 7.026 2.379 2.379 0 0 0 1.85-.826h.058v.504c0 1.346-.718 2.064-1.874 2.064a1.949 1.949 0 0 1-1.775-1.247l-1.338.554a3.302 3.302 0 0 0 3.113 2.08c1.808 0 3.302-1.065 3.302-3.657v-6.292h-1.428v.578Zm-1.775 4.855a2.129 2.129 0 0 1 0-4.252 1.973 1.973 0 0 1 1.882 2.122 1.965 1.965 0 0 1-1.882 2.13Zm20.136-9.148h-3.699v10.32h1.544v-3.913h2.155a3.211 3.211 0 1 0 0-6.407Zm0 4.954h-2.155v-3.517h2.188a1.766 1.766 0 0 1 1.249 3.015c-.331.332-.78.518-1.25.518l-.032-.016Zm9.528-1.478A2.883 2.883 0 0 0 91 20.864l1.362.57a1.467 1.467 0 0 1 1.412-.752 1.486 1.486 0 0 1 1.651 1.33v.099a3.452 3.452 0 0 0-1.61-.397c-1.47 0-2.972.826-2.972 2.329a2.38 2.38 0 0 0 1.626 2.154c.303.101.623.14.942.116a2.185 2.185 0 0 0 1.965-1.007h.05v.825h1.486v-3.97c0-1.809-1.37-2.857-3.13-2.857l-.032-.017Zm-.19 5.655c-.504 0-1.206-.255-1.206-.875 0-.825.875-1.106 1.651-1.106.49-.012.976.108 1.404.347a1.867 1.867 0 0 1-1.816 1.651l-.033-.017Zm8.768-5.416-1.767 4.475h-.05l-1.833-4.475h-1.65l2.748 6.259-1.568 3.476h1.651l4.186-9.735h-1.717Zm-13.87 6.605h1.535v-10.32h-1.536v10.32Z"></path></mask><path d="M56.424 19.32a3.516 3.516 0 1 0 3.525 3.509 3.457 3.457 0 0 0-3.526-3.509h.001Zm0 5.639a2.13 2.13 0 1 1 1.982-2.13 2.033 2.033 0 0 1-1.982 2.13ZM48.73 19.32a3.517 3.517 0 1 0 3.526 3.509 3.458 3.458 0 0 0-3.526-3.509Zm0 5.639a2.13 2.13 0 1 1 1.982-2.13 2.031 2.031 0 0 1-1.982 2.13Zm-9.147-4.557v1.486h3.566c-.056.7-.347 1.36-.825 1.874a3.65 3.65 0 0 1-2.758 1.09 3.963 3.963 0 1 1 0-7.926 3.831 3.831 0 0 1 2.708 1.065l1.049-1.049a5.2 5.2 0 0 0-3.74-1.502 5.46 5.46 0 1 0 0 10.906 5.012 5.012 0 0 0 3.805-1.527 4.954 4.954 0 0 0 1.289-3.493c.002-.31-.023-.619-.075-.924h-5.02Zm37.408 1.155a3.304 3.304 0 0 0-3.005-2.237 3.303 3.303 0 0 0-3.302 3.509 3.493 3.493 0 0 0 6.406 1.957l-1.197-.826a1.989 1.989 0 0 1-1.726.966 1.774 1.774 0 0 1-1.7-1.065l4.698-1.94-.174-.363Zm-4.788 1.173a1.929 1.929 0 0 1 1.84-2.056 1.355 1.355 0 0 1 1.297.751l-3.137 1.305Zm-3.815 3.401h1.544v-10.32h-1.544v10.32Zm-2.526-6.027h-.058a2.428 2.428 0 0 0-1.85-.784 3.517 3.517 0 0 0 0 7.026 2.379 2.379 0 0 0 1.85-.826h.058v.504c0 1.346-.718 2.064-1.874 2.064a1.949 1.949 0 0 1-1.775-1.247l-1.338.554a3.302 3.302 0 0 0 3.113 2.08c1.808 0 3.302-1.065 3.302-3.657v-6.292h-1.428v.578Zm-1.775 4.855a2.129 2.129 0 0 1 0-4.252 1.973 1.973 0 0 1 1.882 2.122 1.965 1.965 0 0 1-1.882 2.13Zm20.136-9.148h-3.699v10.32h1.544v-3.913h2.155a3.211 3.211 0 1 0 0-6.407Zm0 4.954h-2.155v-3.517h2.188a1.766 1.766 0 0 1 1.249 3.015c-.331.332-.78.518-1.25.518l-.032-.016Zm9.528-1.478A2.883 2.883 0 0 0 91 20.864l1.362.57a1.467 1.467 0 0 1 1.412-.752 1.486 1.486 0 0 1 1.651 1.33v.099a3.452 3.452 0 0 0-1.61-.397c-1.47 0-2.972.826-2.972 2.329a2.38 2.38 0 0 0 1.626 2.154c.303.101.623.14.942.116a2.185 2.185 0 0 0 1.965-1.007h.05v.825h1.486v-3.97c0-1.809-1.37-2.857-3.13-2.857l-.032-.017Zm-.19 5.655c-.504 0-1.206-.255-1.206-.875 0-.825.875-1.106 1.651-1.106.49-.012.976.108 1.404.347a1.867 1.867 0 0 1-1.816 1.651l-.033-.017Zm8.768-5.416-1.767 4.475h-.05l-1.833-4.475h-1.65l2.748 6.259-1.568 3.476h1.651l4.186-9.735h-1.717Zm-13.87 6.605h1.535v-10.32h-1.536v10.32Z" fill="#282828" stroke="#282828" stroke-width="1.501" mask="url(#google-play_svg__a)"></path><path d="M8.785 7.587a1.651 1.651 0 0 0-.363 1.156v18.263c-.028.421.111.837.388 1.156l.058.066 10.204-10.23v-.247L8.843 7.53l-.058.057Z" fill="url(#google-play_svg__b)"></path><path d="m22.457 21.408-3.385-3.41v-.247l3.385-3.41.074.05 4.053 2.295c1.156.652 1.156 1.725 0 2.386l-4.036 2.295-.091.041Z" fill="url(#google-play_svg__c)"></path><path d="m22.556 21.36-3.484-3.485L8.785 28.162a1.338 1.338 0 0 0 1.709.058l12.061-6.86" fill="url(#google-play_svg__d)"></path><path d="M22.557 14.39 10.494 7.538a1.33 1.33 0 0 0-1.71.05l10.289 10.286 3.484-3.484Z" fill="url(#google-play_svg__e)"></path><path opacity="0.2" d="m22.457 21.285-11.964 6.811a1.37 1.37 0 0 1-1.651 0l-.057.058.057.066a1.37 1.37 0 0 0 1.652 0l12.061-6.86-.098-.075Z" fill="#000"></path><path opacity="0.12" d="M8.786 28.047a1.651 1.651 0 0 1-.364-1.164v.123c-.028.422.112.837.388 1.156l.058-.057-.082-.058Zm17.8-9.099-4.128 2.337.075.074 4.053-2.295a1.445 1.445 0 0 0 .875-1.189 1.535 1.535 0 0 1-.875 1.073Z" fill="#000"></path><path opacity="0.25" d="m10.493 7.654 16.092 9.148a1.536 1.536 0 0 1 .875 1.073 1.445 1.445 0 0 0-.875-1.19L10.493 7.539c-1.147-.66-2.072-.116-2.072 1.205v.125c0-1.32.925-1.866 2.072-1.214Z" fill="#fff"></path><path d="M34.932 13.143h-.602v-1.65h.512a2.345 2.345 0 0 0 .602-1.875V7.141h3.303v4.343h.553v1.651h-.61v-1.04h-3.758v1.048Zm1.148-3.525a3.301 3.301 0 0 1-.47 1.89h2.476V7.753H36.08v1.866Zm8.182 1.833a2.57 2.57 0 0 1-3.633 0 2.54 2.54 0 0 1-.726-1.833 2.544 2.544 0 0 1 .718-1.833 2.568 2.568 0 0 1 3.633 0 2.542 2.542 0 0 1 .743 1.833 2.475 2.475 0 0 1-.735 1.833Zm-3.162-.413a1.83 1.83 0 0 0 1.346.562 1.809 1.809 0 0 0 1.345-.562 1.916 1.916 0 0 0 .553-1.42 1.913 1.913 0 0 0-.553-1.42 1.809 1.809 0 0 0-1.345-.561 1.833 1.833 0 0 0-1.346.561 1.94 1.94 0 0 0-.545 1.42 1.939 1.939 0 0 0 .545 1.42Zm7.1 1.164a2.526 2.526 0 0 1-2.576-2.584 2.475 2.475 0 0 1 .776-1.85 2.477 2.477 0 0 1 1.833-.734 2.27 2.27 0 0 1 1.817.826l-.438.429a1.651 1.651 0 0 0-1.379-.636 1.857 1.857 0 0 0-1.37.553 1.908 1.908 0 0 0-.586 1.412 1.908 1.908 0 0 0 1.18 1.846c.236.096.489.142.744.136a1.948 1.948 0 0 0 1.502-.719l.446.438c-.227.27-.508.49-.826.644a2.546 2.546 0 0 1-1.123.24Zm4.542-.107h-.637V7.752h-1.387v-.61h3.401v.61H52.74v4.343h.002Zm5.754-4.954L56.62 11.32a1.197 1.197 0 0 1-1.65.776l.164-.586a.71.71 0 0 0 .33.09.594.594 0 0 0 .347-.09.747.747 0 0 0 .223-.314l.182-.396-1.668-3.658h.752l1.221 2.84 1.222-2.84h.752Zm.718 4.954V7.14h3.583v4.954h-.636V7.752H59.85v4.343h-.636Zm4.714 0V7.14h.636v2.122h2.477V7.141h.644v4.954h-.644V9.857h-2.477v2.238h-.636Zm8.942-.644a2.564 2.564 0 0 1-3.45.165 2.477 2.477 0 0 1-.919-1.998 2.479 2.479 0 0 1 .737-1.833 2.559 2.559 0 0 1 3.623 0 2.477 2.477 0 0 1 .736 1.833 2.476 2.476 0 0 1-.727 1.833Zm-3.163-.413a1.805 1.805 0 0 0 1.346.562 1.834 1.834 0 0 0 1.346-.562 1.94 1.94 0 0 0 .545-1.42 1.941 1.941 0 0 0-.545-1.42 1.832 1.832 0 0 0-1.346-.561 1.81 1.81 0 0 0-1.346.561 1.915 1.915 0 0 0-.553 1.42 1.914 1.914 0 0 0 .553 1.42Zm6.49 1.057V7.14h1.791c.372-.003.731.132 1.008.38a1.246 1.246 0 0 1 .429.966c.001.222-.062.44-.182.627-.122.178-.29.318-.487.406.237.079.445.228.595.428.157.2.241.448.24.702a1.302 1.302 0 0 1-.447 1.007 1.511 1.511 0 0 1-1.057.406l-1.89.032Zm.635-2.832h1.156a.717.717 0 0 0 .578-.24.746.746 0 0 0 .223-.52.768.768 0 0 0-.19-.536.708.708 0 0 0-.553-.231h-1.214v1.527Zm0 2.222h1.28a.764.764 0 0 0 .603-.257.825.825 0 0 0 .223-.561.828.828 0 0 0-.85-.81h-1.255v1.627Z" fill="#282828" stroke="#282828" stroke-width="0.15" stroke-miterlimit="10"></path><defs><linearGradient id="google-play_svg__b" x1="18.164" y1="8.553" x2="4.31" y2="22.407" gradientUnits="userSpaceOnUse"><stop stop-color="#00A0FF"></stop><stop offset="0.01" stop-color="#00A1FF"></stop><stop offset="0.26" stop-color="#00BEFF"></stop><stop offset="0.51" stop-color="#00D2FF"></stop><stop offset="0.76" stop-color="#00DFFF"></stop><stop offset="1" stop-color="#00E3FF"></stop></linearGradient><linearGradient id="google-play_svg__c" x1="28.096" y1="17.875" x2="8.124" y2="17.875" gradientUnits="userSpaceOnUse"><stop stop-color="#FFE000"></stop><stop offset="0.41" stop-color="#FFBD00"></stop><stop offset="0.78" stop-color="orange"></stop><stop offset="1" stop-color="#FF9C00"></stop></linearGradient><linearGradient id="google-play_svg__d" x1="20.665" y1="19.774" x2="1.874" y2="38.557" gradientUnits="userSpaceOnUse"><stop stop-color="#FF3A44"></stop><stop offset="1" stop-color="#C31162"></stop></linearGradient><linearGradient id="google-play_svg__e" x1="6.193" y1="1.511" x2="14.581" y2="9.899" gradientUnits="userSpaceOnUse"><stop stop-color="#32A071"></stop><stop offset="0.07" stop-color="#2DA771"></stop><stop offset="0.48" stop-color="#15CF74"></stop><stop offset="0.8" stop-color="#06E775"></stop><stop offset="1" stop-color="#00F076"></stop></linearGradient></defs></svg>